<?xml version="1.0" encoding="utf-8"?>
<!-- Generator: Adobe Illustrator 16.0.0, SVG Export Plug-In . SVG Version: 6.00 Build 0)  -->
<!DOCTYPE svg PUBLIC "-//W3C//DTD SVG 1.1//EN" "http://www.w3.org/Graphics/SVG/1.1/DTD/svg11.dtd">
<svg version="1.1" id="Layer_1" xmlns="http://www.w3.org/2000/svg" xmlns:xlink="http://www.w3.org/1999/xlink" x="0px" y="0px"
	 width="750px" height="750px" viewBox="0 0 750 750" enable-background="new 0 0 750 750" xml:space="preserve">
	<path id="circle_x5F_big_x5F_dark" display="none" fill="#344E5C" d="M376,70.001c168.778,0,306,137.222,306,306c0,168.778-137.223,305.998-306,305.998c-168.777,0-306-136.742-306-305.998C70,207.223,207.222,70.001,376,70.001z"/>
	<path id="square_x5F_dark_1_" fill="#344E5C" d="M70,70.001h612v611.998H70V70.001z"/>
	<path id="square_x5F_light_1_" fill="#DFE1E2" d="M122.594,122.595h506.812v506.812H122.594V122.595z"/>
	<path id="circle_x5F_light" display="none" fill="#DFE1E2" d="M376,122.595c140.091,0,253.405,113.316,253.405,253.405
		S516.089,629.405,376,629.405S122.594,516.089,122.594,376.001S235.91,122.595,376,122.595z"/>
	<path fill="#BFBFC0" d="M366.438,347.313c21.037,0,38.25,17.212,38.25,38.251c0,21.034-17.212,38.25-38.25,38.25
		s-38.25-17.214-38.25-38.25C328.188,364.524,345.399,347.313,366.438,347.313z"/>
	<path id="minutes" fill="#344E5C" d="M376,366.438h153c5.259,0,9.563,4.304,9.563,9.563s-4.304,9.563-9.563,9.563H376
		c-5.259,0-9.563-4.307-9.563-9.563C366.438,370.741,370.74,366.438,376,366.438z"/>
	<path id="hours" fill="#344E5C" d="M310.974,285.636l78.892,78.891c7.172,7.172,7.172,18.168,0,25.341
		c-7.173,7.172-18.169,7.172-25.341,0l-78.892-78.891c-7.172-7.172-7.172-18.168,0-25.341
		C292.327,278.462,303.803,278.462,310.974,285.636z"/>
	<path id="secondes" fill="#E2584C" d="M417.118,321.493l-152.999,153c-3.826,3.825-3.826,10.041,0,13.866
		c3.825,3.823,10.041,3.823,13.866,0l153-153c3.824-3.825,3.824-10.041,0-13.866C427.158,317.668,420.943,317.668,417.118,321.493z"
		/>
	<path id="shadow_x5F_min" fill="#E4E6E6" d="M376,337.751c21.037,0,38.25,17.212,38.25,38.25s-17.212,38.251-38.25,38.251
		c-21.039,0-38.25-17.213-38.25-38.251S354.961,337.751,376,337.751z"/>
	<path id="circle_x5F_min_x5F_dark" fill="#344E5C" d="M376,356.876c10.52,0,19.125,8.606,19.125,19.125
		c0,10.521-8.605,19.126-19.125,19.126c-10.519,0-19.125-8.605-19.125-19.126C356.875,365.482,365.481,356.876,376,356.876z"/>
	<path id="shadow" display="none" fill="#D0D2D3" d="M376,122.595c-75.066,0-142.002,32.513-188.38,84.15
		c44.944-40.162,104.23-65.025,169.256-65.025c140.091,0,253.405,113.316,253.405,253.405c0,65.025-24.384,124.313-65.024,169.257
		c51.638-46.378,84.149-113.314,84.149-188.381C629.405,235.91,516.089,122.595,376,122.595z"/>
</svg>
